<svg width="446" height="496" viewBox="0 0 446 496" fill="none" xmlns="http://www.w3.org/2000/svg">
<path d="M444 124.375L222.544 248.55V296.24L400.256 198.16V345.73L268.111 419.515V371.825L354.689 323.235V272.845L222.544 345.73V496L444 371.825V124.375Z" fill="white"/>
<path d="M222.544 248.55L2 124.375V371.825L222.544 496V345.73L90.4 272.845V323.235L179.711 371.825V419.515L45.7443 345.73V198.16L222.544 296.24V248.55Z" fill="white"/>
<path d="M2 124.375L222.544 248.55L444 124.375L310.944 51.49L179.711 124.375L222.544 148.67L310.944 98.2805L358.334 124.375L222.544 198.16L90.4 124.375L265.377 26.2951L222.544 2L2 124.375Z" fill="white"/>
</svg>
