<svg width="32" height="45" viewBox="0 0 32 45" fill="none" xmlns="http://www.w3.org/2000/svg">
<path d="M16.5 18.2778C11.7661 18.2778 7.92857 14.2981 7.92857 9.38889C7.92857 4.47969 11.7661 0.5 16.5 0.5C21.2339 0.5 25.0714 4.47969 25.0714 9.38889C25.0714 14.2981 21.2339 18.2778 16.5 18.2778Z" fill="white"/>
<path d="M31.5 39.5C31.5 30.9089 24.7843 24.9444 16.5 24.9444C8.21573 24.9444 0.5 30.9089 0.5 39.5C0.5 39.5 8.5 44.1383 16.5 44C22.6149 43.8943 31.5 39.5 31.5 39.5Z" fill="white"/>
<path d="M16.5 18.2778C11.7661 18.2778 7.92857 14.2981 7.92857 9.38889C7.92857 4.47969 11.7661 0.5 16.5 0.5C21.2339 0.5 25.0714 4.47969 25.0714 9.38889C25.0714 14.2981 21.2339 18.2778 16.5 18.2778Z" stroke="white" stroke-linecap="round" stroke-linejoin="round"/>
<path d="M31.5 39.5C31.5 30.9089 24.7843 24.9444 16.5 24.9444C8.21573 24.9444 0.5 30.9089 0.5 39.5C0.5 39.5 8.5 44.1383 16.5 44C22.6149 43.8943 31.5 39.5 31.5 39.5Z" stroke="white" stroke-linecap="round" stroke-linejoin="round"/>
</svg>
